<?xml version="1.0" encoding="UTF-8" standalone="no"?>
<svg
   viewBox="0 0 318.43359 27.228516"
   version="1.1"
   id="svg3"
   sodipodi:docname="logo.svg"
   width="318.43359"
   height="27.228516"
   inkscape:version="1.4 (86a8ad7, 2024-10-11)"
   xmlns:inkscape="http://www.inkscape.org/namespaces/inkscape"
   xmlns:sodipodi="http://sodipodi.sourceforge.net/DTD/sodipodi-0.dtd"
   xmlns="http://www.w3.org/2000/svg"
   xmlns:svg="http://www.w3.org/2000/svg">
  <sodipodi:namedview
     id="namedview3"
     pagecolor="#ffffff"
     bordercolor="#000000"
     borderopacity="0.25"
     inkscape:showpageshadow="2"
     inkscape:pageopacity="0.0"
     inkscape:pagecheckerboard="0"
     inkscape:deskcolor="#d1d1d1"
     inkscape:zoom="2.9769319"
     inkscape:cx="153.84967"
     inkscape:cy="19.651105"
     inkscape:window-width="1920"
     inkscape:window-height="1009"
     inkscape:window-x="-8"
     inkscape:window-y="-8"
     inkscape:window-maximized="1"
     inkscape:current-layer="svg3" />
  <defs
     id="defs3">
    <style
       id="style1">
            @import url('https://fonts.googleapis.com/css2?family=Inter:wght@900');
            text { font-family: 'Inter', sans-serif; font-weight: 900; }
        </style>
    <linearGradient
       id="logo-grad"
       x1="0.96634665"
       y1="11.221135"
       x2="94.081728"
       y2="104.33652"
       gradientTransform="matrix(3.4197744,0,0,0.29241695,-3.3046875,-3.28125)"
       gradientUnits="userSpaceOnUse">
      <stop
         offset="0%"
         stop-color="#ffffff"
         id="stop1" />
      <stop
         offset="50%"
         stop-color="#38bdf8"
         id="stop2" />
      <stop
         offset="100%"
         stop-color="#818cf8"
         id="stop3" />
    </linearGradient>
  </defs>
  <path
     d="m 10.511719,10.634766 q 1.59961,0 2.425781,-0.703125 0.826172,-0.703125 0.826172,-2.074219 0,-1.3535157 -0.826172,-2.0566407 Q 12.111329,5.0800781 10.511719,5.0800781 H 6.7675785 v 5.5546879 z m 0.228516,11.478515 q 2.039062,0 3.058594,-0.861328 1.037109,-0.861328 1.037109,-2.601562 0,-1.705079 -1.019531,-2.548829 -1.019532,-0.861328 -3.076172,-0.861328 H 6.7675785 v 6.873047 z m 6.292969,-9.439453 q 2.179687,0.632813 3.375,2.337891 1.195312,1.705078 1.195312,4.183593 0,3.796875 -2.566406,5.660157 -2.566407,1.863281 -7.804689,1.863281 H 0 V 0.4746094 h 10.160156 q 5.466797,0 7.910156,1.6523437 2.460938,1.6523438 2.460938,5.2910159 0,1.916015 -0.896485,3.269531 -0.896484,1.335938 -2.601561,1.986328 z m 9.40625,-12.1992186 h 6.767577 V 16.207031 q 0,3.251953 1.054687,4.658203 1.072266,1.388672 3.480469,1.388672 2.425781,0 3.480469,-1.388672 1.072265,-1.40625 1.072265,-4.658203 V 0.4746094 H 49.0625 V 16.207031 q 0,5.572266 -2.794922,8.296875 -2.794922,2.72461 -8.525391,2.72461 -5.712891,0 -8.507812,-2.72461 -2.794921,-2.724609 -2.794921,-8.296875 z M 64.287109,12.111328 q 2.126953,0 3.041016,-0.791015 0.93164,-0.791016 0.93164,-2.601563 0,-1.792969 -0.93164,-2.5664062 -0.914063,-0.7734375 -3.041016,-0.7734375 h -2.847656 v 6.7324217 z m -2.847656,4.675781 V 26.71875 H 54.671875 V 0.4746094 h 10.335937 q 5.185547,0 7.59375,1.7402343 2.425781,1.7402344 2.425781,5.5019533 0,2.601562 -1.265625,4.271484 -1.248047,1.669922 -3.779297,2.460938 1.388672,0.316406 2.478516,1.441406 1.107422,1.107422 2.232422,3.375 l 3.673828,7.453125 h -7.207031 l -3.199219,-6.521484 q -0.966797,-1.96875 -1.96875,-2.689454 -0.984375,-0.720703 -2.636719,-0.720703 z M 99.656252,1.3007812 V 6.855469 q -2.16211,-0.9667971 -4.218753,-1.4589846 -2.05664,-0.4921875 -3.884765,-0.4921875 -2.425781,0 -3.585938,0.6679687 -1.160156,0.6679688 -1.160156,2.0742184 0,1.054688 0.773438,1.652344 0.791015,0.580078 2.847656,1.001953 l 2.882812,0.580078 q 4.376956,0.878907 6.222656,2.671875 1.845698,1.792969 1.845698,5.097657 0,4.341796 -2.583978,6.46875 -2.566407,2.109375 -7.857423,2.109375 -2.496093,0 -5.009765,-0.47461 -2.513672,-0.474609 -5.027344,-1.40625 v -5.71289 q 2.513672,1.335937 4.851563,2.021484 2.355468,0.667969 4.535156,0.667969 2.214844,0 3.392578,-0.738282 1.177734,-0.738281 1.177734,-2.109375 0,-1.230468 -0.808593,-1.898437 -0.791016,-0.667969 -3.181641,-1.195313 l -2.619141,-0.580078 q -3.9375,-0.84375 -5.765625,-2.689453 -1.810547,-1.845703 -1.810547,-4.974609 0,-3.919922 2.53125,-6.029297 Q 85.734374,0 90.480468,0 q 2.16211,0 4.447266,0.3339844 2.285158,0.3164062 4.728518,0.9667968 z M 103.1914,0.4746094 h 24.1875 v 5.1152344 h -8.70117 V 26.71875 h -6.76758 V 5.5898438 h -8.71875 z m 59.03125,24.8027346 q -1.86328,0.966797 -3.88476,1.458984 -2.02149,0.492188 -4.21875,0.492188 -6.55664,0 -10.38867,-3.65625 -3.83204,-3.673829 -3.83204,-9.949219 0,-6.292969 3.83204,-9.9492189 Q 147.5625,0 154.11914,0 q 2.19726,0 4.21875,0.4921875 2.02148,0.4921875 3.88476,1.4589844 V 7.382813 q -1.88086,-1.2832036 -3.70898,-1.8808599 -1.82813,-0.5976562 -3.84961,-0.5976562 -3.62109,0 -5.69531,2.3203121 -2.07422,2.320313 -2.07422,6.398438 0,4.060547 2.07422,6.380859 2.07422,2.320313 5.69531,2.320313 2.02148,0 3.84961,-0.597657 1.82812,-0.597656 3.70898,-1.880859 z M 182.75586,21.9375 h -10.58203 l -1.66993,4.78125 h -6.80273 l 9.7207,-26.2441406 h 8.06836 l 9.7207,26.2441406 h -6.80273 z m -8.89453,-4.869141 h 7.18945 L 177.46484,6.6269531 Z M 211.95508,1.3007812 V 6.855469 q -2.16211,-0.9667971 -4.21875,-1.4589846 -2.05665,-0.4921875 -3.88477,-0.4921875 -2.42578,0 -3.58594,0.6679687 -1.16015,0.6679688 -1.16015,2.0742184 0,1.054688 0.77343,1.652344 0.79102,0.580078 2.84766,1.001953 l 2.88281,0.580078 q 4.37696,0.878907 6.22266,2.671875 1.8457,1.792969 1.8457,5.097657 0,4.341796 -2.58398,6.46875 -2.56641,2.109375 -7.85742,2.109375 -2.4961,0 -5.00977,-0.47461 -2.51367,-0.474609 -5.02734,-1.40625 v -5.71289 q 2.51367,1.335937 4.85156,2.021484 2.35547,0.667969 4.53515,0.667969 2.21485,0 3.39258,-0.738282 1.17774,-0.738281 1.17774,-2.109375 0,-1.230468 -0.8086,-1.898437 -0.79101,-0.667969 -3.18164,-1.195313 l -2.61914,-0.580078 q -3.9375,-0.84375 -5.76562,-2.689453 -1.81055,-1.845703 -1.81055,-4.974609 0,-3.919922 2.53125,-6.029297 Q 198.0332,0 202.77929,0 q 2.16211,0 4.44727,0.3339844 2.28516,0.3164062 4.72852,0.9667968 z m 27.47656,23.9765628 q -1.86328,0.966797 -3.88477,1.458984 -2.02148,0.492188 -4.21875,0.492188 -6.55664,0 -10.38867,-3.65625 -3.83203,-3.673829 -3.83203,-9.949219 0,-6.292969 3.83203,-9.9492189 Q 224.77148,0 231.32812,0 q 2.19727,0 4.21875,0.4921875 2.02149,0.4921875 3.88477,1.4589844 V 7.382813 q -1.88086,-1.2832036 -3.70899,-1.8808599 -1.82812,-0.5976562 -3.84961,-0.5976562 -3.62109,0 -5.69531,2.3203121 -2.07422,2.320313 -2.07422,6.398438 0,4.060547 2.07422,6.380859 2.07422,2.320313 5.69531,2.320313 2.02149,0 3.84961,-0.597657 1.82813,-0.597656 3.70899,-1.880859 z m 20.5332,-3.339844 h -10.58203 l -1.66992,4.78125 h -6.80274 l 9.72071,-26.2441406 h 8.06836 l 9.7207,26.2441406 h -6.80274 z m -8.89453,-4.869141 h 7.18945 L 254.67383,6.6269531 Z M 277.66797,5.5898438 V 21.603516 h 2.42578 q 4.14843,0 6.32812,-2.056641 2.19727,-2.056641 2.19727,-5.976563 0,-3.902343 -2.17969,-5.941406 -2.17969,-2.0390622 -6.3457,-2.0390622 z m -6.76758,-5.1152344 h 7.13672 q 5.97656,0 8.89453,0.8613281 2.93554,0.84375 5.02734,2.8828125 1.8457,1.7753906 2.74219,4.095703 0.89648,2.320313 0.89648,5.255859 0,2.970704 -0.89648,5.308594 -0.89649,2.320313 -2.74219,4.095703 -2.10937,2.039063 -5.0625,2.900391 -2.95312,0.84375 -8.85937,0.84375 h -7.13672 z m 28.88281,0 h 18.26367 v 5.1152344 h -11.49609 v 4.8867192 h 10.81055 v 5.115234 h -10.81055 v 6.011719 h 11.88281 V 26.71875 H 299.7832 Z"
     id="text3"
     style="font-weight:900;font-size:36px;font-family:Inter, sans-serif;letter-spacing:-1;fill:url(#logo-grad)"
     aria-label="BURST CASCADE" />
</svg>
